<svg xmlns="http://www.w3.org/2000/svg" viewBox="0 0 72 72" style="enable-background:new 0 0 72 72" xml:space="preserve"><linearGradient id="a" gradientUnits="userSpaceOnUse" x1="36" y1="356" x2="36" y2="428" gradientTransform="translate(0 -356)"><stop offset="0" style="stop-color:#2aabee"/><stop offset="1" style="stop-color:#229ed9"/></linearGradient><path style="fill:url(#a)" d="M0 0h72v72H0z"/><path d="M18.2248 35.0514c9.6637-4.2103 16.1076-6.986 19.3319-8.327 9.2058-3.829 11.1187-4.4942 12.3655-4.5164.2743-.0046.8874.0633 1.2846.3856.3353.2721.4276.6397.4718.8977.0441.258.0991.8458.0554 1.305-.4989 5.2417-2.6575 17.9618-3.7557 23.8326-.4646 2.4841-1.3796 3.317-2.2654 3.3985-1.925.1772-3.3868-1.2722-5.2513-2.4943-2.9176-1.9125-4.5658-3.103-7.3978-4.9693-3.2729-2.1568-1.1512-3.3422.714-5.2795.4881-.507 8.9699-8.2217 9.134-8.9216.0206-.0875.0396-.4138-.1542-.586s-.4799-.1134-.6863-.0666c-.2927.0664-4.9535 3.147-13.9826 9.242-1.323.9084-2.5212 1.351-3.5949 1.3278-1.1836-.0256-3.4603-.6692-5.1529-1.2194-2.076-.6748-3.7259-1.0316-3.5822-2.1776.0749-.597.8969-1.2074 2.4661-1.8315z" style="fill:#fff"/></svg>